# This file uses centimeters as units for non-parametric coordinates.

mtllib ac vent.mtl
g default
v -30.000000 -30.000000 3.881233
v 30.000000 -30.000000 3.881233
v -30.000000 30.000000 3.881233
v 30.000000 30.000000 3.881233
v -30.000000 30.000000 -2.000000
v 30.000000 30.000000 -2.000000
v -30.000000 -30.000000 -2.000000
v 30.000000 -30.000000 -2.000000
v -21.553185 -21.553185 3.881233
v 21.553185 -21.553185 3.881233
v 21.553185 21.553185 3.881233
v -21.553185 21.553185 3.881233
v -19.286263 19.286263 -2.000000
v 19.286263 19.286263 -2.000000
v 19.286263 -19.286263 -2.000000
v -19.286263 -19.286263 -2.000000
v -14.292752 -14.292752 3.881233
v 14.292752 -14.292752 3.881233
v 14.292752 14.292752 3.881233
v -14.292752 14.292752 3.881233
v -14.292752 14.292752 -2.000000
v 14.292752 14.292752 -2.000000
v 14.292752 -14.292752 -2.000000
v -14.292752 -14.292752 -2.000000
v -7.401955 -7.401955 2.000000
v 7.401955 -7.401955 2.000000
v 7.401955 7.401955 2.000000
v -7.401955 7.401955 2.000000
v -7.401955 7.401955 -2.000000
v 7.401955 7.401955 -2.000000
v 7.401955 -7.401955 -2.000000
v -7.401955 -7.401955 -2.000000
v -3.156615 -3.156615 2.537867
v 3.156615 -3.156615 2.537867
v 3.156615 3.156615 2.537867
v -3.156615 3.156615 2.537867
v -15.298888 -15.298888 2.000000
v -15.298888 15.298888 2.000000
v 15.298888 15.298888 2.000000
v 15.298888 -15.298888 2.000000
v -22.073111 -22.073111 3.881233
v -22.073111 22.073111 3.881233
v 22.073111 22.073111 3.881233
v 22.073111 -22.073111 3.881233
v -29.208662 -29.208662 3.881233
v -29.208662 29.208662 3.881233
v 29.208662 29.208662 3.881233
v 29.208662 -29.208662 3.881233
v -6.953160 -6.953160 3.881233
v -6.953160 6.953160 3.881233
v 6.953160 6.953160 3.881233
v 6.953160 -6.953160 3.881233
v -14.795820 -14.795820 3.881233
v -14.795820 14.795820 3.881233
v 14.795820 14.795820 3.881233
v 14.795820 -14.795820 3.881233
v -22.429890 -22.429890 2.000000
v -22.429890 22.429890 2.000000
v 22.429890 22.429890 2.000000
v 22.429890 -22.429890 2.000000
v -6.683861 -6.683861 3.881233
v -6.683861 6.683861 3.881233
v 6.683861 6.683861 3.881233
v 6.683861 -6.683861 3.881233
v -35.602386 35.602386 3.881233
v 35.602386 35.602386 3.881233
v 35.602386 35.602386 -2.000000
v -35.602386 35.602386 -2.000000
v -35.602386 -35.602386 -2.000000
v 35.602386 -35.602386 -2.000000
v 35.602386 -35.602386 3.881233
v -35.602386 -35.602386 3.881233
vt 0.584924 0.001978
vt 0.624732 0.001978
vt 0.624732 0.483937
vt 0.584924 0.483937
vt 0.631699 0.001978
vt 0.671506 0.001978
vt 0.671506 0.483937
vt 0.631698 0.483937
vt 0.240999 0.790729
vt 0.240999 0.890931
vt 0.228265 0.887894
vt 0.228265 0.793767
vt 0.267244 0.890931
vt 0.267244 0.790729
vt 0.279978 0.793767
vt 0.279978 0.887894
vt 0.116761 0.695033
vt 0.116761 0.487928
vt 0.129495 0.491333
vt 0.129495 0.691628
vt 0.091757 0.487928
vt 0.091757 0.695033
vt 0.079024 0.691628
vt 0.079024 0.491333
vt 0.497181 0.791568
vt 0.497181 0.487928
vt 0.509914 0.490343
vt 0.509914 0.789153
vt 0.472177 0.487928
vt 0.472177 0.791568
vt 0.459443 0.789153
vt 0.459443 0.490343
vt 0.001992 0.483937
vt 0.001992 0.001978
vt 0.041800 0.001978
vt 0.041800 0.483937
vt 0.538149 0.483937
vt 0.538149 0.001978
vt 0.577957 0.001978
vt 0.577957 0.483937
vt 0.208776 0.890931
vt 0.208776 0.790729
vt 0.221509 0.793767
vt 0.221509 0.887894
vt 0.260488 0.790729
vt 0.260488 0.890931
vt 0.247755 0.887894
vt 0.247755 0.793767
vt 0.110626 0.487928
vt 0.110626 0.695033
vt 0.097892 0.691628
vt 0.097892 0.491333
vt 0.060155 0.695033
vt 0.060155 0.487928
vt 0.072888 0.491333
vt 0.072888 0.691628
vt 0.491045 0.487928
vt 0.491045 0.791568
vt 0.478312 0.789153
vt 0.478312 0.490343
vt 0.440575 0.791568
vt 0.440575 0.487928
vt 0.453308 0.490343
vt 0.453308 0.789153
vt 0.312431 0.816427
vt 0.355163 0.816427
vt 0.355163 0.859158
vt 0.312431 0.859158
vt 0.288557 0.792552
vt 0.379038 0.792552
vt 0.379038 0.883033
vt 0.288557 0.883033
vt 0.286734 0.790729
vt 0.380861 0.790729
vt 0.380861 0.884856
vt 0.286734 0.884856
vt 0.239840 0.192856
vt 0.340042 0.192856
vt 0.340042 0.293059
vt 0.239840 0.293059
vt 0.193199 0.146215
vt 0.386684 0.146215
vt 0.386684 0.339700
vt 0.193199 0.339700
vt 0.159400 0.112416
vt 0.420483 0.112416
vt 0.420483 0.373499
vt 0.159400 0.373499
vt 0.086882 0.039899
vt 0.493000 0.039899
vt 0.493000 0.446016
vt 0.086882 0.446016
vt 0.048962 0.001978
vt 0.530921 0.001978
vt 0.530921 0.483937
vt 0.048962 0.483937
vt 0.553970 0.525849
vt 0.960088 0.525849
vt 0.954731 0.531205
vt 0.559326 0.531205
vt 0.516049 0.487928
vt 0.998008 0.487928
vt 0.960088 0.931967
vt 0.954731 0.926610
vt 0.908848 0.577088
vt 0.605209 0.577088
vt 0.553970 0.931967
vt 0.559326 0.926610
vt 0.516049 0.969887
vt 0.998008 0.969887
vt 0.908848 0.880727
vt 0.605209 0.880727
vt 0.139149 0.491447
vt 0.430920 0.491447
vt 0.388587 0.533780
vt 0.181482 0.533780
vt 0.135630 0.487928
vt 0.434439 0.487928
vt 0.430920 0.783219
vt 0.388587 0.740886
vt 0.139149 0.783219
vt 0.181482 0.740886
vt 0.434439 0.786738
vt 0.135630 0.786738
vt 0.005397 0.794134
vt 0.198882 0.794134
vt 0.152241 0.840775
vt 0.052038 0.840775
vt 0.001992 0.790729
vt 0.202287 0.790729
vt 0.198882 0.987619
vt 0.152241 0.940978
vt 0.005397 0.987619
vt 0.052038 0.940978
vt 0.202287 0.991024
vt 0.001992 0.991024
vn 0.000000 0.000000 1.000000
vn 0.000000 0.000000 1.000000
vn 0.000000 0.000000 1.000000
vn 0.000000 0.000000 1.000000
vn 0.000000 1.000000 0.000000
vn 0.000000 1.000000 0.000000
vn 0.000000 1.000000 0.000000
vn 0.000000 1.000000 0.000000
vn 0.000000 0.000000 -1.000000
vn 0.000000 0.000000 -1.000000
vn 0.000000 0.000000 -1.000000
vn 0.000000 0.000000 -1.000000
vn 0.000000 -1.000000 0.000000
vn 0.000000 -1.000000 0.000000
vn 0.000000 -1.000000 0.000000
vn 0.000000 -1.000000 0.000000
vn 1.000000 0.000000 0.000000
vn 1.000000 0.000000 0.000000
vn 1.000000 0.000000 0.000000
vn 1.000000 0.000000 0.000000
vn -1.000000 0.000000 0.000000
vn -1.000000 0.000000 0.000000
vn -1.000000 0.000000 0.000000
vn -1.000000 0.000000 0.000000
vn 0.000000 0.000000 1.000000
vn 0.000000 0.000000 1.000000
vn 0.000000 0.195479 0.980708
vn 0.000000 0.195479 0.980708
vn 0.000000 0.000000 1.000000
vn 0.000000 0.000000 1.000000
vn -0.195479 0.000000 0.980708
vn -0.195479 0.000000 0.980708
vn 0.000000 0.000000 1.000000
vn 0.000000 0.000000 1.000000
vn 0.000000 -0.195479 0.980708
vn 0.000000 -0.195479 0.980708
vn -0.000000 0.000000 1.000000
vn -0.000000 0.000000 1.000000
vn 0.195479 0.000000 0.980708
vn 0.195479 0.000000 0.980708
vn 0.000000 0.000000 -1.000000
vn 0.000000 0.000000 -1.000000
vn 0.000000 0.000000 -1.000000
vn 0.000000 0.000000 -1.000000
vn 0.000000 0.000000 -1.000000
vn 0.000000 0.000000 -1.000000
vn 0.000000 0.000000 -1.000000
vn 0.000000 0.000000 -1.000000
vn 0.000000 0.000000 -1.000000
vn 0.000000 0.000000 -1.000000
vn 0.000000 0.000000 -1.000000
vn 0.000000 0.000000 -1.000000
vn 0.000000 0.000000 -1.000000
vn 0.000000 0.000000 -1.000000
vn 0.000000 0.000000 -1.000000
vn 0.000000 0.000000 -1.000000
vn 0.000000 0.288042 0.957618
vn 0.000000 0.288042 0.957618
vn 0.000000 0.154442 0.988002
vn 0.000000 0.154442 0.988002
vn -0.288042 0.000000 0.957618
vn -0.288042 0.000000 0.957618
vn -0.154442 0.000000 0.988002
vn -0.154442 0.000000 0.988002
vn 0.000000 -0.288042 0.957618
vn 0.000000 -0.288042 0.957618
vn 0.000000 -0.154442 0.988002
vn 0.000000 -0.154442 0.988002
vn 0.288042 0.000000 0.957618
vn 0.288042 0.000000 0.957618
vn 0.154442 0.000000 0.988002
vn 0.154442 0.000000 0.988002
vn 0.000000 0.000000 -1.000000
vn 0.000000 0.000000 -1.000000
vn 0.000000 0.000000 -1.000000
vn 0.000000 0.000000 -1.000000
vn 0.000000 0.000000 -1.000000
vn 0.000000 0.000000 -1.000000
vn 0.000000 0.000000 -1.000000
vn 0.000000 0.000000 -1.000000
vn 0.000000 0.000000 -1.000000
vn 0.000000 0.000000 -1.000000
vn 0.000000 0.000000 -1.000000
vn 0.000000 0.000000 -1.000000
vn -0.000000 0.000000 -1.000000
vn -0.000000 0.000000 -1.000000
vn -0.000000 0.000000 -1.000000
vn -0.000000 0.000000 -1.000000
vn 0.000000 0.263368 0.964695
vn 0.000000 0.263368 0.964695
vn 0.000000 0.263368 0.964695
vn 0.000000 0.263368 0.964695
vn -0.263368 0.000000 0.964695
vn -0.263368 0.000000 0.964695
vn -0.263368 0.000000 0.964695
vn -0.263368 0.000000 0.964695
vn 0.000000 -0.263368 0.964695
vn 0.000000 -0.263368 0.964695
vn 0.000000 -0.263368 0.964695
vn 0.000000 -0.263368 0.964695
vn 0.263368 0.000000 0.964695
vn 0.263368 0.000000 0.964695
vn 0.263368 0.000000 0.964695
vn 0.263368 0.000000 0.964695
vn 0.000000 0.000000 -1.000000
vn 0.000000 0.000000 -1.000000
vn 0.000000 0.000000 -1.000000
vn 0.000000 0.000000 -1.000000
vn -0.000000 0.000000 -1.000000
vn -0.000000 0.000000 -1.000000
vn -0.000000 0.000000 -1.000000
vn -0.000000 0.000000 -1.000000
vn 0.000000 0.000000 -1.000000
vn 0.000000 0.000000 -1.000000
vn 0.000000 0.000000 -1.000000
vn 0.000000 0.000000 -1.000000
vn 0.000000 0.000000 -1.000000
vn 0.000000 0.000000 -1.000000
vn 0.000000 0.000000 -1.000000
vn 0.000000 0.000000 -1.000000
vn 0.000000 -0.972703 0.232052
vn 0.000000 -0.972703 0.232052
vn 0.000000 -0.958368 0.285536
vn 0.000000 -0.958368 0.285536
vn 0.972703 0.000000 0.232052
vn 0.972703 0.000000 0.232052
vn 0.958368 0.000000 0.285536
vn 0.958368 0.000000 0.285536
vn 0.000000 0.972703 0.232052
vn 0.000000 0.972703 0.232052
vn 0.000000 0.958368 0.285536
vn 0.000000 0.958368 0.285536
vn -0.972703 0.000000 0.232052
vn -0.972703 0.000000 0.232052
vn -0.958368 0.000000 0.285536
vn -0.958368 0.000000 0.285536
vn -0.935176 0.000000 0.354183
vn -0.935176 0.000000 0.354183
vn 0.000000 0.935176 0.354183
vn 0.000000 0.935176 0.354183
vn 0.935176 0.000000 0.354183
vn 0.935176 0.000000 0.354183
vn 0.000000 -0.935176 0.354183
vn 0.000000 -0.935176 0.354183
vn -0.954915 0.000000 0.296881
vn -0.954915 0.000000 0.296881
vn -0.000000 0.000000 1.000000
vn -0.000000 0.000000 1.000000
vn 0.000000 0.954915 0.296881
vn 0.000000 0.954915 0.296881
vn 0.000000 0.000000 1.000000
vn 0.000000 0.000000 1.000000
vn 0.954915 0.000000 0.296881
vn 0.954915 0.000000 0.296881
vn 0.000000 0.000000 1.000000
vn 0.000000 0.000000 1.000000
vn 0.000000 -0.954915 0.296881
vn 0.000000 -0.954915 0.296881
vn 0.000000 0.000000 1.000000
vn 0.000000 0.000000 1.000000
vn 0.130963 0.000000 0.991387
vn 0.130963 0.000000 0.991387
vn 0.000000 -0.130963 0.991387
vn 0.000000 -0.130963 0.991387
vn -0.130963 0.000000 0.991387
vn -0.130963 0.000000 0.991387
vn 0.000000 0.130963 0.991387
vn 0.000000 0.130963 0.991387
vn 0.280293 0.000000 0.959914
vn 0.280293 0.000000 0.959914
vn 0.000000 -0.280293 0.959914
vn 0.000000 -0.280293 0.959914
vn -0.280293 0.000000 0.959914
vn -0.280293 0.000000 0.959914
vn 0.000000 0.280293 0.959914
vn 0.000000 0.280293 0.959914
vn 0.000000 0.000000 1.000000
vn 0.000000 0.000000 1.000000
vn 0.000000 0.000000 1.000000
vn 0.000000 0.000000 1.000000
vn -0.000000 0.000000 1.000000
vn -0.000000 0.000000 1.000000
vn 0.000000 0.000000 1.000000
vn 0.000000 0.000000 1.000000
vn 0.355915 0.000000 0.934518
vn 0.355915 0.000000 0.934518
vn 0.000000 -0.355915 0.934518
vn 0.000000 -0.355915 0.934518
vn -0.355915 0.000000 0.934518
vn -0.355915 0.000000 0.934518
vn 0.000000 0.355915 0.934518
vn 0.000000 0.355915 0.934518
vn 0.000000 0.000000 1.000000
vn 0.000000 0.000000 1.000000
vn 0.000000 0.000000 1.000000
vn 0.000000 0.000000 1.000000
vn 0.000000 0.000000 -1.000000
vn 0.000000 0.000000 -1.000000
vn 0.000000 0.000000 -1.000000
vn 0.000000 0.000000 -1.000000
vn 0.000000 -0.000000 -1.000000
vn 0.000000 -0.000000 -1.000000
vn 0.000000 -0.000000 -1.000000
vn 0.000000 -0.000000 -1.000000
vn 0.000000 0.000000 1.000000
vn 0.000000 0.000000 1.000000
vn 0.000000 0.000000 1.000000
vn 0.000000 0.000000 1.000000
vn 0.000000 -0.000000 -1.000000
vn 0.000000 -0.000000 -1.000000
vn 0.000000 -0.000000 -1.000000
vn 0.000000 -0.000000 -1.000000
vn -0.000000 0.000000 1.000000
vn -0.000000 0.000000 1.000000
vn -0.000000 0.000000 1.000000
vn -0.000000 0.000000 1.000000
vn 0.000000 0.000000 1.000000
vn 0.000000 0.000000 1.000000
vn 0.000000 0.000000 1.000000
vn 0.000000 0.000000 1.000000
vn 0.000000 -0.000000 -1.000000
vn 0.000000 -0.000000 -1.000000
vn 0.000000 -0.000000 -1.000000
vn 0.000000 -0.000000 -1.000000
s off
g acvent
usemtl initialShadingGroup
f 33/65/1 34/66/2 35/67/3 36/68/4
f 65/33/5 66/34/6 67/35/7 68/36/8
f 29/77/9 30/78/10 31/79/11 32/80/12
f 69/37/13 70/38/14 71/39/15 72/40/16
f 71/1/17 70/2/18 67/3/19 66/4/20
f 69/5/21 72/6/22 65/7/23 68/8/24
s 1
f 1/97/25 2/98/26 48/99/27 45/100/28
s 2
f 2/98/29 4/103/30 47/104/31 48/99/32
s 3
f 4/103/33 3/107/34 46/108/35 47/104/36
s 4
f 3/107/37 1/97/38 45/100/39 46/108/40
s off
f 5/89/41 6/90/42 14/86/43 13/85/44
f 6/90/45 8/91/46 15/87/47 14/86/48
f 8/91/49 7/92/50 16/88/51 15/87/52
f 7/92/53 5/89/54 13/85/55 16/88/56
s 5
f 9/113/57 10/114/58 40/115/59 37/116/60
s 6
f 10/114/61 11/119/62 39/120/63 40/115/64
s 7
f 11/119/65 12/121/66 38/122/67 39/120/68
s 8
f 12/121/69 9/113/70 37/116/71 38/122/72
s off
f 13/85/73 14/86/74 22/82/75 21/81/76
f 14/86/77 15/87/78 23/83/79 22/82/80
f 15/87/81 16/88/82 24/84/83 23/83/84
f 16/88/85 13/85/86 21/81/87 24/84/88
f 17/125/89 18/126/90 26/127/91 25/128/92
f 18/126/93 19/131/94 27/132/95 26/127/96
f 19/131/97 20/133/98 28/134/99 27/132/100
f 20/133/101 17/125/102 25/128/103 28/134/104
f 21/81/105 22/82/106 30/78/107 29/77/108
f 22/82/109 23/83/110 31/79/111 30/78/112
f 23/83/113 24/84/114 32/80/115 31/79/116
f 24/84/117 21/81/118 29/77/119 32/80/120
s 9
f 25/41/121 26/42/122 52/43/123 49/44/124
s 10
f 26/9/125 27/10/126 51/11/127 52/12/128
s 11
f 27/45/129 28/46/130 50/47/131 51/48/132
s 12
f 28/13/133 25/14/134 49/15/135 50/16/136
s 8
f 38/17/72 37/18/71 53/19/137 54/20/138
s 7
f 39/49/68 38/50/67 54/51/139 55/52/140
s 6
f 40/21/64 39/22/63 55/23/141 56/24/142
s 5
f 37/53/60 40/54/59 56/55/143 53/56/144
s 4
f 42/124/145 41/117/146 9/113/147 12/121/148
s 3
f 43/123/149 42/124/150 12/121/151 11/119/152
s 2
f 44/118/153 43/123/154 11/119/155 10/114/156
s 1
f 41/117/157 44/118/158 10/114/159 9/113/160
s 4
f 46/108/40 45/100/39 57/106/161 58/112/162
s 3
f 47/104/36 46/108/35 58/112/163 59/111/164
s 2
f 48/99/32 47/104/31 59/111/165 60/105/166
s 1
f 45/100/28 48/99/27 60/105/167 57/106/168
s 12
f 50/76/136 49/73/135 61/69/169 62/72/170
s 11
f 51/75/132 50/76/131 62/72/171 63/71/172
s 10
f 52/74/128 51/75/127 63/71/173 64/70/174
s 9
f 49/73/124 52/74/123 64/70/175 61/69/176
s 8
f 54/136/138 53/129/137 17/125/177 20/133/178
s 7
f 55/135/140 54/136/139 20/133/179 19/131/180
s 6
f 56/130/142 55/135/141 19/131/181 18/126/182
s 5
f 53/129/144 56/130/143 18/126/183 17/125/184
s 4
f 58/25/162 57/26/161 41/27/146 42/28/145
s 3
f 59/57/164 58/58/163 42/59/150 43/60/149
s 2
f 60/29/166 59/30/165 43/31/154 44/32/153
s 1
f 57/61/168 60/62/167 44/63/158 41/64/157
s 12
f 62/72/170 61/69/169 33/65/185 36/68/186
s 11
f 63/71/172 62/72/171 36/68/187 35/67/188
s 10
f 64/70/174 63/71/173 35/67/189 34/66/190
s 9
f 61/69/176 64/70/175 34/66/191 33/65/192
s off
f 3/107/193 4/103/194 66/110/195 65/109/196
f 6/90/197 5/89/198 68/93/199 67/94/200
f 7/92/201 8/91/202 70/95/203 69/96/204
f 2/98/205 1/97/206 72/101/207 71/102/208
f 8/91/209 6/90/210 67/94/211 70/95/212
f 4/103/213 2/98/214 71/102/215 66/110/216
f 1/97/217 3/107/218 65/109/219 72/101/220
f 5/89/221 7/92/222 69/96/223 68/93/224
